#!OML:ASF X:\für Bonn\!DataBase\2005_08_11_Bastian_Final\c3d\Bastian.ASF
:FULLY-SPECIFIED
:DEGREES
66
root -0.675339 17.2816 20.8344 -733.396 -180.735 -717.469
lowerback 9.77995 -4.42501 1.1031
upperback 5.45822 -5.20208 1.25066
thorax 0.221079 -2.3456 1.16179
lowerneck -11.2922 -5.64863 -7.27484
upperneck 13.8936 -7.93526 11.5336
head 6.86154 -3.15315 4.17982
rclavicle -9.49197e-015 1.78906e-014
rhumerus -39.8027 -1.57075 -85.4898
rradius 27.208
rwrist -5.49284
rhand -16.514 3.30682
rfingers 7.12502
rthumb 9.7043 -26.4496
lclavicle -9.49197e-015 1.78906e-014
lhumerus -20.0127 -20.388 92.2947
lradius 10.6974
lwrist 14.4156
lhand -12.6545 -8.72489
lfingers 7.12502
lthumb 13.4262 20.8224
rfemur 2.73764 -2.03471 21.996
rtibia 37.9136
rfoot -16.529 -7.79781
rtoes -8.21073
lfemur 8.31313 6.68116 -15.2578
ltibia 22.6568
lfoot -9.26408 -8.31406
ltoes 0.713026
67
root -0.677898 17.2844 20.8388 -733.395 -180.874 -717.421
lowerback 9.87645 -4.48279 1.08771
upperback 5.48199 -5.26948 1.31119
thorax 0.201518 -2.377 1.24495
lowerneck -11.3724 -5.59054 -7.14729
upperneck 13.911 -7.86004 11.4155
head 6.86331 -3.11855 4.1263
rclavicle -1.94188e-014 1.59028e-014
rhumerus -39.8263 -1.59586 -85.4269
rradius 27.4245
rwrist -5.56699
rhand -16.5182 3.27065
rfingers 7.12502
rthumb 9.70026 -26.486
lclavicle -1.94188e-014 1.59028e-014
lhumerus -19.8945 -20.6572 92.3209
lradius 10.9365
lwrist 14.4091
lhand -12.5882 -8.77149
lfingers 7.12502
lthumb 13.4902 20.7716
rfemur 2.49815 -2.09841 21.9611
rtibia 38.1467
rfoot -16.4677 -7.71631
rtoes -7.9632
lfemur 8.386 6.81242 -15.1682
ltibia 22.5044
lfoot -9.19877 -8.32571
ltoes 0.762301
68
root -0.679712 17.2879 20.8414 -733.392 -181.017 -717.396
lowerback 9.96428 -4.52791 1.04869
upperback 5.48343 -5.32544 1.37083
thorax 0.165636 -2.40475 1.33955
lowerneck -11.3526 -5.52953 -7.04459
upperneck 13.8786 -7.78156 11.3386
head 6.83421 -3.08418 4.09239
rclavicle -9.74666e-014 5.52621e-014
rhumerus -39.8794 -1.72808 -85.286
rradius 27.5822
rwrist -5.50743
rhand -16.4613 3.28607
rfingers 7.12502
rthumb 9.75508 -26.468
lclavicle -9.74666e-014 5.52621e-014
lhumerus -19.8329 -20.7641 92.3634
lradius 11.1761
lwrist 14.2569
lhand -12.5667 -8.81485
lfingers 7.12502
lthumb 13.5109 20.7269
rfemur 2.26911 -2.10254 21.9193
rtibia 38.316
rfoot -16.4014 -7.68801
rtoes -7.8275
lfemur 8.47241 6.85604 -15.1287
ltibia 22.3502
lfoot -9.13085 -8.24102
ltoes 1.09061
69
root -0.680999 17.2918 20.8438 -733.384 -181.15 -717.376
lowerback 10.031 -4.57798 1.01366
upperback 5.50177 -5.38698 1.42492
thorax 0.158196 -2.43445 1.42456
lowerneck -11.3843 -5.47186 -6.92263
upperneck 13.8731 -7.70657 11.2246
head 6.8209 -3.05168 4.0419
rclavicle 8.09302e-014 -1.66979e-014
rhumerus -39.872 -1.91299 -85.1411
rradius 27.6615
rwrist -5.35909
rhand -16.4386 3.3203
rfingers 7.12502
rthumb 9.77698 -26.4327
lclavicle 8.09302e-014 -1.66979e-014
lhumerus -19.7657 -20.9839 92.417
lradius 11.4425
lwrist 14.2713
lhand -12.5796 -8.81418
lfingers 7.12502
lthumb 13.4984 20.7284
rfemur 2.0469 -2.12321 21.8646
rtibia 38.4402
rfoot -16.2963 -7.65054
rtoes -7.71467
lfemur 8.55074 7.0067 -15.0596
ltibia 22.1985
lfoot -9.0388 -8.24629
ltoes 1.34347
70
root -0.682045 17.2976 20.8455 -733.364 -181.277 -717.325
lowerback 10.0918 -4.62488 0.997912
upperback 5.51256 -5.4422 1.50493
thorax 0.147033 -2.46087 1.52491
lowerneck -11.3635 -5.4263 -6.83736
upperneck 13.8173 -7.64314 11.1252
head 6.78566 -3.02897 4.00153
rclavicle 4.84289e-014 -1.66979e-014
rhumerus -39.8789 -2.06813 -84.9625
rradius 27.7023
rwrist -5.22584
rhand -16.4117 3.4256
rfingers 7.12502
rthumb 9.80294 -26.3262
lclavicle 4.84289e-014 -1.66979e-014
lhumerus -19.7036 -21.1854 92.4854
lradius 11.691
lwrist 14.2581
lhand -12.6088 -8.83809
lfingers 7.12502
lthumb 13.4703 20.7063
rfemur 1.82417 -2.10132 21.8595
rtibia 38.519
rfoot -16.1804 -7.66832
rtoes -7.76217
lfemur 8.62557 7.09129 -14.9789
ltibia 22.0277
lfoot -8.95988 -8.20068
ltoes 1.32853
71
root -0.682196 17.3027 20.8464 -733.354 -181.416 -717.259
lowerback 10.1476 -4.67956 0.994191
upperback 5.53573 -5.50525 1.58637
thorax 0.150815 -2.49021 1.62005
lowerneck -11.4106 -5.36733 -6.72891
upperneck 13.8225 -7.56521 11.0158
head 6.77926 -2.9947 3.95494
rclavicle -3.25261e-014 1.90833e-014
rhumerus -39.8546 -2.20574 -84.8019
rradius 27.7284
rwrist -5.08684
rhand -16.3964 3.48952
rfingers 7.12502
rthumb 9.81775 -26.2616
lclavicle -3.25261e-014 1.90833e-014
lhumerus -19.6848 -21.2673 92.5171
lradius 12.0332
lwrist 14.2214
lhand -12.6377 -8.78911
lfingers 7.12502
lthumb 13.4424 20.7571
rfemur 1.63228 -2.08415 21.8676
rtibia 38.5513
rfoot -16.0837 -7.67566
rtoes -7.94439
lfemur 8.7121 7.14489 -14.8865
ltibia 21.8617
lfoot -8.90169 -8.14841
ltoes 1.43209
72
root -0.681954 17.3082 20.8486 -733.335 -181.547 -717.185
lowerback 10.2007 -4.73405 1.01398
upperback 5.55627 -5.56657 1.65877
thorax 0.150259 -2.51824 1.69281
lowerneck -11.4028 -5.30652 -6.60642
upperneck 13.7748 -7.48579 10.9092
head 6.74601 -2.96189 3.90765
rclavicle 3.75206e-014 -6.36111e-015
rhumerus -39.8466 -2.33859 -84.6742
rradius 27.7376
rwrist -4.94857
rhand -16.3982 3.58512
rfingers 7.12502
rthumb 9.81599 -26.1661
lclavicle 3.75206e-014 -6.36111e-015
lhumerus -19.7057 -21.7083 92.6085
lradius 12.4096
lwrist 14.5521
lhand -12.6384 -8.65933
lfingers 7.12502
lthumb 13.4417 20.887
rfemur 1.45022 -2.06739 21.8893
rtibia 38.5407
rfoot -15.9589 -7.70321
rtoes -8.22049
lfemur 8.78513 7.28478 -14.7584
ltibia 21.6966
lfoot -8.81846 -8.14645
ltoes 1.32069
73
root -0.681638 17.3134 20.8507 -733.324 -181.676 -717.11
lowerback 10.2592 -4.78774 1.02422
upperback 5.58756 -5.62484 1.74889
thorax 0.160866 -2.54411 1.78874
lowerneck -11.4468 -5.25533 -6.51049
upperneck 13.7646 -7.41585 10.7968
head 6.73564 -2.93328 3.86121
rclavicle -4.57205e-015 2.42517e-014
rhumerus -39.8374 -2.32373 -84.5762
rradius 27.7891
rwrist -4.93369
rhand -16.4107 3.60656
rfingers 7.12502
rthumb 9.80396 -26.1452
lclavicle -4.57205e-015 2.42517e-014
lhumerus -19.7105 -21.9866 92.7023
lradius 12.7978
lwrist 14.8275
lhand -12.6457 -8.48695
lfingers 7.12502
lthumb 13.4347 21.0598
rfemur 1.30373 -2.01796 21.912
rtibia 38.4867
rfoot -15.8608 -7.72275
rtoes -8.52355
lfemur 8.85804 7.33488 -14.6546
ltibia 21.5511
lfoot -8.75973 -8.079
ltoes 1.3883
74
root -0.680374 17.3189 20.8517 -733.29 -181.805 -717.018
lowerback 10.2669 -4.8479 1.06681
upperback 5.62982 -5.69049 1.83426
thorax 0.207109 -2.57292 1.85818
lowerneck -11.4877 -5.19851 -6.401
upperneck 13.7424 -7.34012 10.6861
head 6.72012 -2.90142 3.81372
rclavicle -6.59468e-014 3.29983e-014
rhumerus -39.8045 -2.33525 -84.4768
rradius 27.8189
rwrist -4.91976
rhand -16.4134 3.66999
rfingers 7.12502
rthumb 9.80134 -26.0819
lclavicle -6.59468e-014 3.29983e-014
lhumerus -19.7286 -22.2642 92.7712
lradius 13.2378
lwrist 15.1545
lhand -12.6323 -8.26979
lfingers 7.12502
lthumb 13.4476 21.2761
rfemur 1.15347 -1.9365 21.9717
rtibia 38.3911
rfoot -15.7739 -7.77804
rtoes -8.8849
lfemur 8.9006 7.34222 -14.545
ltibia 21.4308
lfoot -8.73027 -7.9761
ltoes 1.46027
75
root -0.679027 17.3235 20.8531 -733.256 -181.932 -716.902
lowerback 10.2971 -4.91103 1.15425
upperback 5.66007 -5.75433 1.93563
thorax 0.225889 -2.59964 1.92169
lowerneck -11.5247 -5.15547 -6.35885
upperneck 13.7032 -7.27437 10.5907
head 6.70259 -2.87806 3.78117
rclavicle 4.0229e-014 3.97569e-016
rhumerus -39.7938 -2.25561 -84.391
rradius 27.8655
rwrist -4.97141
rhand -16.4155 3.70337
rfingers 7.12502
rthumb 9.79934 -26.0486
lclavicle 4.0229e-014 3.97569e-016
lhumerus -19.7404 -22.4963 92.8855
lradius 13.6772
lwrist 15.5343
lhand -12.6464 -8.01827
lfingers 7.12502
lthumb 13.434 21.5285
rfemur 1.02036 -1.89173 22.0468
rtibia 38.2542
rfoot -15.721 -7.78971
rtoes -9.3364
lfemur 8.92989 7.3833 -14.4011
ltibia 21.3328
lfoot -8.72308 -7.9064
ltoes 1.24336
76
root -0.677307 17.3275 20.8549 -733.241 -182.065 -716.798
lowerback 10.3332 -4.98406 1.26328
upperback 5.71408 -5.82673 2.01977
thorax 0.262515 -2.62846 1.95599
lowerneck -11.5956 -5.10089 -6.34922
upperneck 13.672 -7.19292 10.5375
head 6.6951 -2.84411 3.76903
rclavicle 5.34234e-014 -7.95139e-015
rhumerus -39.7293 -2.07647 -84.3628
rradius 27.8901
rwrist -5.08055
rhand -16.4631 3.69098
rfingers 7.12502
rthumb 9.75342 -26.0632
lclavicle 5.34234e-014 -7.95139e-015
lhumerus -19.7185 -22.5984 92.9363
lradius 14.1358
lwrist 15.8002
lhand -12.5682 -7.72138
lfingers 7.12502
lthumb 13.5094 21.8204
rfemur 0.919044 -1.81353 22.1165
rtibia 38.079
rfoot -15.6789 -7.80501
rtoes -9.60611
lfemur 8.97398 7.39783 -14.2693
ltibia 21.2495
lfoot -8.72677 -7.81993
ltoes 1.28096
77
root -0.674578 17.3306 20.8563 -733.218 -182.187 -716.704
lowerback 10.3667 -5.04675 1.3887
upperback 5.75452 -5.88559 2.09709
thorax 0.283542 -2.65074 1.97349
lowerneck -11.6772 -5.06101 -6.3562
upperneck 13.6686 -7.13073 10.4907
head 6.70099 -2.81838 3.75978
rclavicle -5.46409e-014 3.73715e-014
rhumerus -39.7105 -1.91673 -84.3238
rradius 27.9286
rwrist -5.24264
rhand -16.4879 3.73835
rfingers 7.12502
rthumb 9.7295 -26.0169
lclavicle -5.46409e-014 3.73715e-014
lhumerus -19.7329 -22.7808 93.0315
lradius 14.6409
lwrist 16.2676
lhand -12.467 -7.38914
lfingers 7.12502
lthumb 13.607 22.1462
rfemur 0.826585 -1.74037 22.1768
rtibia 37.8708
rfoot -15.6564 -7.80634
rtoes -9.76996
lfemur 8.99975 7.46314 -14.135
ltibia 21.1819
lfoot -8.71101 -7.77549
ltoes 1.26009
78
root -0.671935 17.3335 20.8573 -733.175 -182.314 -716.64
lowerback 10.3586 -5.11894 1.5392
upperback 5.80844 -5.95784 2.14207
thorax 0.335283 -2.67891 1.9412
lowerneck -11.7737 -5.02677 -6.40775
upperneck 13.663 -7.07464 10.4889
head 6.71272 -2.79387 3.77177
rclavicle -1.40392e-014 1.86858e-014
rhumerus -39.6418 -1.77203 -84.3112
rradius 27.9288
rwrist -5.3798
rhand -16.5555 3.73295
rfingers 7.12502
rthumb 9.66425 -26.0254
lclavicle -1.40392e-014 1.86858e-014
lhumerus -19.7452 -22.8127 93.0542
lradius 15.1849
lwrist 16.6391
lhand -12.381 -7.06747
lfingers 7.12502
lthumb 13.6898 22.4623
rfemur 0.728633 -1.63674 22.2124
rtibia 37.6379
rfoot -15.6293 -7.87088
rtoes -10.0505
lfemur 9.01467 7.30603 -14.1188
ltibia 21.1082
lfoot -8.78859 -7.49726
ltoes 1.00764
79
root -0.668971 17.3364 20.8587 -733.139 -182.424 -716.568
lowerback 10.3763 -5.19424 1.69762
upperback 5.8539 -6.03161 2.19737
thorax 0.364402 -2.70736 1.91804
lowerneck -11.8483 -4.99213 -6.44597
upperneck 13.631 -7.01693 10.4698
head 6.71089 -2.77087 3.77622
rclavicle 4.87022e-015 -3.81667e-014
rhumerus -39.5792 -1.6256 -84.2766
rradius 27.913
rwrist -5.4802
rhand -16.6056 3.75952
rfingers 7.12502
rthumb 9.61588 -26.001
lclavicle 4.87022e-015 -3.81667e-014
lhumerus -19.772 -22.8956 93.1201
lradius 15.7231
lwrist 17.068
lhand -12.2717 -6.73487
lfingers 7.12502
lthumb 13.7952 22.7877
rfemur 0.640057 -1.57053 22.2488
rtibia 37.3941
rfoot -15.6142 -7.91527
rtoes -10.2934
lfemur 9.04192 7.08129 -14.1125
ltibia 21.0127
lfoot -8.85233 -7.16124
ltoes 0.748331
80
root -0.664626 17.339 20.8592 -733.097 -182.517 -716.539
lowerback 10.4038 -5.27479 1.77518
upperback 5.86933 -6.12207 2.26543
thorax 0.367117 -2.74812 1.95621
lowerneck -11.8978 -4.93411 -6.51612
upperneck 13.6576 -6.92079 10.4172
head 6.71952 -2.73314 3.77995
rclavicle 1.29707e-014 2.70347e-014
rhumerus -39.5804 -1.25805 -84.2783
rradius 27.9551
rwrist -5.75435
rhand -16.6528 3.66452
rfingers 7.12502
rthumb 9.57036 -26.0981
lclavicle 1.29707e-014 2.70347e-014
lhumerus -19.8939 -22.8586 93.2388
lradius 16.3269
lwrist 17.5143
lhand -12.1868 -6.37633
lfingers 7.12502
lthumb 13.877 23.1407
rfemur 0.558826 -1.47584 22.2439
rtibia 37.1444
rfoot -15.6159 -7.97374
rtoes -10.5069
lfemur 9.07676 6.83154 -14.1555
ltibia 20.8889
lfoot -8.90771 -6.82479
ltoes 0.734213
